<?xml version="1.0" standalone="no"?>
<!DOCTYPE svg PUBLIC "-//W3C//DTD SVG 20010904//EN"
 "http://www.w3.org/TR/2001/REC-SVG-20010904/DTD/svg10.dtd">
<svg version="1.0" xmlns="http://www.w3.org/2000/svg"
 width="2000.000000pt" height="2000.000000pt" viewBox="0 0 2000.000000 2000.000000"
 preserveAspectRatio="xMidYMid meet">
<metadata>
Created by potrace 1.14, written by Peter Selinger 2001-2017
</metadata>
<g transform="translate(0.000000,2000.000000) scale(0.100000,-0.100000)"
fill="#000000" stroke="none">
<path d="M9298 16675 c-2 -2 -43 -5 -93 -9 -392 -26 -798 -161 -1068 -355
-178 -127 -360 -341 -443 -521 -26 -57 -29 -59 -77 -70 -27 -6 -88 -24 -134
-40 -399 -141 -702 -437 -866 -845 -44 -110 -100 -315 -113 -410 -3 -27 -8
-52 -9 -55 -2 -3 -7 -41 -11 -85 -34 -379 38 -692 233 -1013 l44 -73 -36 -40
c-114 -127 -218 -351 -241 -519 -10 -71 -11 -221 -2 -263 4 -20 11 -54 14 -75
8 -53 52 -177 87 -247 97 -195 269 -376 461 -487 39 -23 80 -47 92 -54 20 -12
20 -15 8 -86 -23 -136 -24 -151 -25 -252 0 -363 137 -637 414 -825 110 -75
310 -155 471 -188 l81 -17 35 -54 c46 -72 198 -228 280 -287 299 -216 654
-233 1027 -48 120 59 197 122 255 208 89 132 92 151 96 538 l3 337 1437 0
1438 0 28 -66 c18 -40 51 -89 82 -124 226 -243 627 -155 734 161 55 160 16
325 -104 445 -69 69 -118 97 -208 120 -202 52 -419 -56 -505 -253 l-27 -63
-1438 0 -1438 0 0 825 0 825 718 0 717 0 203 -203 203 -203 -25 -45 c-114
-207 -34 -480 175 -593 172 -94 379 -65 520 74 136 134 170 332 86 502 -56
116 -151 196 -273 233 -63 19 -204 14 -268 -9 l-48 -18 -232 230 c-180 179
-240 232 -271 242 -31 10 -199 13 -773 13 l-732 -1 2 496 3 496 498 1 497 0
34 -70 c151 -317 569 -352 764 -64 81 121 96 291 35 421 -90 192 -287 294
-489 252 -136 -28 -250 -118 -309 -246 l-33 -73 -499 0 -498 0 -3 771 -2 770
770 0 770 0 0 -40 c0 -23 1 -161 3 -307 l2 -266 30 -49 c19 -30 49 -60 79 -78
l49 -30 421 -1 421 0 17 -42 c100 -246 371 -355 602 -243 185 90 284 294 239
494 -68 300 -418 436 -678 264 -69 -46 -165 -175 -165 -222 0 -8 -5 -18 -12
-22 -12 -8 -738 -13 -769 -6 -14 3 -16 37 -16 297 l0 294 -27 54 c-29 60 -77
99 -141 116 -26 7 -264 10 -675 10 -349 1 -699 1 -777 1 l-143 0 0 163 c0 89
-5 191 -11 226 -27 169 -145 315 -289 360 -31 9 -175 22 -182 16z m127 -230
c46 -18 95 -79 115 -144 20 -63 20 -102 18 -3085 l-3 -3021 -26 -55 c-14 -30
-45 -74 -69 -98 -51 -50 -188 -121 -308 -159 -75 -24 -104 -28 -212 -28 -111
0 -135 3 -214 29 -180 59 -366 219 -465 402 -13 22 -31 46 -42 52 -10 7 -72
23 -137 36 -367 75 -586 228 -686 479 -43 108 -56 195 -52 347 4 143 5 151 36
272 11 43 20 87 20 99 0 47 -33 78 -127 124 -241 115 -400 266 -498 470 -109
228 -107 452 6 680 130 260 420 474 734 541 144 31 215 38 354 36 244 -3 484
-74 681 -200 73 -47 128 -49 171 -5 23 23 30 39 31 70 1 55 -12 75 -79 119
-156 103 -361 181 -578 219 -114 20 -313 25 -430 11 -242 -28 -505 -122 -676
-241 l-63 -44 -39 67 c-153 263 -213 535 -183 837 63 633 386 1076 899 1234
37 11 89 23 115 27 80 10 109 29 137 93 80 180 137 264 259 387 187 187 402
303 710 383 157 41 233 54 381 67 44 4 81 8 83 9 6 5 118 -3 137 -10z m3391
-1211 c125 -34 190 -174 137 -295 -25 -56 -54 -85 -112 -111 -172 -78 -354 89
-293 269 19 59 80 119 138 136 62 18 69 18 130 1z m-1496 -1009 c64 -34 110
-112 110 -190 0 -144 -141 -251 -277 -210 -67 20 -112 60 -140 124 -84 190
119 373 307 276z m730 -1965 c83 -23 151 -116 152 -210 0 -100 -82 -198 -182
-215 -123 -21 -245 74 -254 197 -12 156 131 271 284 228z m1121 -1108 c78 -31
133 -119 131 -210 -4 -174 -208 -273 -345 -168 -142 108 -111 320 55 383 36
14 118 11 159 -5z"/>
<path d="M8843 15255 c-35 -15 -57 -50 -68 -110 -4 -22 -9 -51 -12 -65 -8 -48
-51 -160 -79 -207 -41 -71 -127 -157 -192 -191 -32 -17 -94 -41 -137 -53 -80
-22 -86 -22 -356 -18 -70 2 -119 -61 -104 -131 6 -29 55 -79 78 -81 7 0 21 -3
32 -5 51 -13 275 -6 358 10 240 46 432 191 538 405 47 95 85 227 93 324 4 50
2 61 -20 86 -36 44 -83 56 -131 36z"/>
<path d="M7649 12408 c-38 -14 -68 -48 -75 -84 -14 -73 26 -116 123 -134 172
-33 326 -108 467 -230 125 -108 245 -336 285 -540 20 -102 22 -124 26 -253 5
-149 18 -182 75 -202 44 -15 88 -4 121 31 23 24 24 32 24 142 0 189 -20 321
-72 487 -93 295 -300 536 -580 675 -153 75 -342 127 -394 108z"/>
<path d="M58 8422 l-28 -3 0 -2120 0 -2119 383 1 c417 1 494 7 617 47 170 55
283 179 334 362 14 52 20 87 31 170 11 79 16 629 16 1550 -1 1401 -4 1531 -43
1685 -66 265 -235 397 -542 421 -86 7 -719 12 -768 6z m895 -90 c267 -73 370
-247 377 -637 1 -66 4 -203 6 -305 6 -325 5 -1852 -1 -2220 -3 -195 -10 -390
-15 -432 -20 -166 -88 -306 -182 -377 -134 -101 -206 -113 -666 -115 -199 -1
-366 1 -370 4 -4 3 -7 929 -7 2058 l0 2054 390 -4 c359 -5 396 -7 468 -26z"/>
<path d="M169 8276 c-6 -147 -2 -3959 5 -3963 12 -8 592 -6 646 2 86 12 103
16 158 35 151 53 243 182 272 380 15 109 20 530 20 1610 0 1414 -3 1521 -51
1666 -45 138 -139 224 -289 264 -80 22 -105 23 -422 25 -336 2 -338 1 -339
-19z m683 -55 c32 -7 60 -12 63 -12 15 3 113 -56 150 -90 89 -82 122 -209 126
-483 4 -262 3 -2587 -1 -2741 -8 -318 -97 -456 -327 -511 -15 -4 -162 -9 -325
-11 -284 -5 -298 -4 -299 14 -1 23 -1 3813 0 3833 1 13 38 15 278 14 174 -1
299 -6 335 -13z"/>
<path d="M318 8169 c-7 -5 -10 -591 -10 -1845 0 -1012 1 -1852 1 -1867 l1 -29
253 5 c138 2 266 7 282 11 63 14 159 70 192 114 43 57 73 157 82 279 9 120 6
2942 -3 2998 -17 98 -46 172 -87 219 -85 97 -162 116 -470 119 -127 1 -236 -1
-241 -4z m539 -84 c106 -36 158 -108 184 -250 10 -55 13 -383 13 -1500 0 -786
-3 -1465 -6 -1508 -12 -140 -52 -227 -129 -278 -65 -43 -123 -52 -341 -53
l-198 -2 -1 26 c-1 32 -1 3561 0 3579 1 22 409 10 478 -14z"/>
<path d="M1950 8422 c-6 -2 -10 -17 -10 -33 l0 -29 178 2 177 3 0 29 -1 29
-167 1 c-92 1 -172 0 -177 -2z"/>
<path d="M4744 8422 l-21 -3 0 -2119 0 -2120 34 0 c18 0 33 3 34 8 1 4 2 957
3 2119 1 1870 -1 2112 -14 2115 -8 2 -24 2 -36 0z"/>
<path d="M4889 8422 l-25 -3 0 -2117 1 -2117 35 0 35 0 0 2117 c0 1404 -3
2119 -10 2121 -5 1 -22 1 -36 -1z"/>
<path d="M5030 8421 l-25 -6 0 -2115 0 -2115 35 0 35 0 0 2113 c0 1399 -3
2116 -10 2121 -5 4 -21 5 -35 2z"/>
<path d="M13282 8419 c-16 -6 -17 -136 -17 -2122 l0 -2117 37 0 c21 0 37 3 37
8 -1 4 -1 944 0 2090 l1 2082 560 0 c308 0 560 3 561 8 0 4 2 17 3 30 2 12 -2
22 -8 23 -65 4 -1161 2 -1174 -2z"/>
<path d="M14849 8421 c-13 -5 -14 -282 -14 -2123 l0 -2118 36 0 35 0 0 2119 0
2119 -21 4 c-12 3 -28 2 -36 -1z"/>
<path d="M14988 8419 c-11 -6 -13 -360 -12 -2121 l1 -2113 34 0 34 0 1 2117 2
2116 -23 4 c-13 3 -29 1 -37 -3z"/>
<path d="M15135 8421 c-20 -6 -20 -15 -20 -2124 l0 -2118 35 3 35 3 2 2116 c2
1981 1 2117 -15 2121 -9 2 -26 2 -37 -1z"/>
<path d="M1949 8289 c-6 -3 -9 -17 -7 -30 l3 -24 175 0 174 0 1 30 0 30 -168
0 c-92 0 -173 -2 -178 -6z"/>
<path d="M13409 8210 c0 -97 0 -3706 1 -3903 l0 -128 33 3 32 3 2 1044 c1 660
5 1046 11 1050 6 3 215 6 466 6 l456 -1 0 32 0 33 -461 0 c-254 0 -463 2 -465
4 -3 3 -6 1505 -4 1842 l0 40 488 -1 c269 0 490 4 493 9 3 4 4 18 2 30 l-5 23
-524 0 -524 -1 -1 -85z"/>
<path d="M1957 8172 c-11 -2 -17 -13 -17 -33 l0 -29 178 0 178 0 0 30 c0 28
-2 30 -35 30 -20 1 -93 2 -162 3 -69 1 -133 1 -142 -1z"/>
<path d="M13603 8172 c-33 -2 -53 -8 -53 -15 -1 -13 -1 -1638 0 -1704 l0 -43
430 0 430 0 0 30 0 30 -395 0 -395 0 0 820 0 820 419 0 c439 0 434 0 423 43
-3 14 -16 17 -66 17 -517 4 -750 4 -793 2z"/>
<path d="M3350 7388 c-311 -45 -454 -194 -499 -518 -9 -65 -11 -523 -3 -566 5
-25 21 -35 49 -28 17 5 18 21 18 292 0 244 3 299 19 367 51 220 156 331 361
382 98 24 345 24 435 0 226 -60 336 -220 355 -515 2 -37 4 -642 4 -1344 l1
-1278 35 0 36 0 -2 1333 c-1 1394 0 1383 -43 1527 -32 109 -98 204 -180 259
-44 29 -131 66 -181 76 -16 3 -41 8 -55 11 -42 9 -291 11 -350 2z"/>
<path d="M6208 7395 c-2 -1 -30 -5 -63 -9 -92 -10 -214 -51 -283 -97 -142 -93
-212 -245 -237 -514 -29 -318 -22 -1885 10 -2095 56 -374 254 -531 675 -533
416 -3 638 180 676 556 35 357 35 1839 -1 2132 -21 180 -76 313 -168 405 -70
71 -206 132 -327 147 -38 4 -278 12 -282 8z m338 -83 c95 -25 154 -57 208
-109 81 -79 135 -198 157 -348 32 -222 41 -1439 14 -2021 -16 -349 -122 -524
-360 -596 -112 -34 -305 -42 -434 -18 -150 27 -270 98 -333 194 -43 67 -84
189 -93 281 -4 33 -8 70 -10 82 -8 49 -19 674 -18 1053 0 536 10 893 28 1018
43 297 184 443 464 483 91 13 297 2 377 -19z"/>
<path d="M6199 7276 c-2 -2 -22 -6 -44 -9 -86 -12 -175 -52 -236 -106 -83 -73
-135 -202 -154 -386 -17 -163 -24 -1142 -12 -1650 9 -366 11 -383 43 -530 1
-5 12 -35 24 -65 39 -100 100 -165 194 -209 84 -39 172 -55 301 -54 321 2 477
128 530 428 16 96 24 425 24 1045 -1 534 -2 607 -13 906 -13 320 -60 452 -197
543 -93 62 -170 83 -325 87 -72 2 -132 2 -135 0z m271 -73 c126 -32 202 -92
251 -197 67 -142 74 -268 74 -1246 0 -640 -6 -955 -18 -1030 -19 -112 -17
-106 -58 -198 -60 -138 -193 -205 -409 -205 -310 -1 -451 136 -475 463 -23
308 -22 1742 1 1980 15 150 67 283 135 345 47 42 126 80 196 94 71 14 240 11
303 -6z"/>
<path d="M6177 7149 c-165 -39 -255 -169 -271 -394 -24 -330 -24 -1695 0
-1978 22 -263 148 -391 384 -392 148 0 198 12 281 71 94 68 135 187 145 432
11 251 12 378 13 872 0 632 -9 964 -28 1080 -28 170 -109 267 -253 306 -58 15
-211 17 -271 3z m286 -74 c86 -36 145 -119 168 -237 17 -89 24 -395 24 -1058
0 -601 -7 -978 -20 -1045 -41 -218 -135 -297 -345 -291 -201 7 -296 112 -315
349 -22 283 -22 1621 0 1942 13 183 67 289 172 336 83 38 231 40 316 4z"/>
<path d="M8055 7393 c-151 -12 -302 -70 -393 -151 -78 -71 -139 -216 -157
-372 -3 -25 -8 -67 -11 -95 -9 -75 -11 -956 -3 -1140 11 -255 47 -364 153
-470 34 -34 78 -69 98 -78 20 -10 40 -22 43 -27 3 -5 -17 -20 -45 -34 -28 -14
-66 -37 -85 -52 -43 -32 -97 -115 -114 -173 -14 -49 -17 -159 -6 -211 20 -95
88 -176 177 -213 44 -18 56 -37 23 -37 -35 0 -129 -55 -180 -105 -96 -94 -126
-187 -121 -375 9 -305 148 -451 489 -515 94 -18 363 -24 472 -11 248 29 429
124 504 266 54 102 66 157 66 315 0 123 -5 158 -30 236 -71 213 -270 311 -685
334 -323 18 -407 55 -418 187 -8 103 31 181 108 212 54 22 77 25 220 31 211 8
273 18 377 56 160 60 256 172 302 354 39 157 43 224 45 930 2 565 2 582 23
638 42 113 114 167 241 180 48 5 49 6 52 27 5 33 0 37 -47 34 -122 -8 -209
-51 -262 -128 -61 -88 -76 -155 -73 -336 3 -272 1 -862 -3 -990 -8 -214 -15
-271 -51 -379 -31 -92 -73 -156 -134 -204 -106 -82 -220 -114 -438 -121 -181
-7 -226 -13 -288 -41 -88 -39 -137 -125 -138 -241 0 -111 50 -182 156 -220 84
-30 100 -32 362 -49 194 -13 365 -57 458 -117 101 -64 157 -191 163 -370 12
-391 -199 -558 -704 -561 -140 -1 -247 11 -350 38 -211 57 -306 145 -347 321
-16 71 -17 212 -3 291 27 144 123 244 287 299 35 12 63 25 63 29 0 5 -24 16
-54 25 -70 22 -128 64 -161 117 -33 52 -37 68 -43 170 -10 178 67 296 234 356
33 12 60 27 59 32 0 6 -24 19 -53 31 -92 38 -169 112 -212 206 -55 121 -66
264 -65 833 1 428 6 641 16 720 17 138 64 262 125 332 60 69 183 130 302 149
62 10 294 13 349 4 193 -32 302 -116 348 -270 10 -33 20 -60 23 -60 3 0 18 26
33 58 31 66 97 139 160 176 32 18 174 67 196 66 74 -2 90 1 94 18 12 46 -28
54 -141 26 -129 -32 -247 -111 -308 -208 l-25 -39 -19 43 c-61 136 -175 220
-330 245 -48 7 -260 13 -324 8z"/>
<path d="M11938 7389 c-327 -45 -478 -211 -513 -564 -11 -107 -14 -367 -14
-1065 0 -976 4 -1083 45 -1228 55 -192 176 -308 374 -356 98 -23 154 -29 285
-28 237 0 397 52 494 158 59 64 80 101 110 194 40 120 43 160 46 480 2 151 -1
280 -6 285 -4 6 -20 10 -35 10 l-27 -2 -2 -289 c-2 -323 -16 -420 -74 -539
-85 -173 -249 -245 -543 -239 -383 9 -556 162 -583 519 -20 256 -20 1853 0
2080 26 298 145 458 380 511 96 21 301 26 395 9 127 -23 235 -75 297 -144 48
-54 99 -183 117 -296 16 -99 24 -762 13 -1095 l-2 -65 -500 0 -500 0 1 -460
c0 -253 4 -493 8 -534 16 -159 70 -257 169 -305 66 -32 89 -37 212 -41 117 -4
210 16 273 57 55 37 97 125 116 243 15 92 18 558 4 580 -4 6 -19 10 -35 9
l-28 -1 -1 -274 c-1 -289 -7 -345 -48 -434 -42 -92 -124 -127 -285 -121 -149
5 -228 48 -269 145 -41 95 -44 141 -46 716 l-1 360 498 0 c435 0 497 2 498 15
0 8 3 40 5 70 7 104 7 935 0 1029 -6 84 -12 121 -30 210 -29 136 -114 260
-220 320 -47 27 -149 62 -221 77 -48 9 -295 11 -357 3z"/>
<path d="M16232 7384 c-255 -42 -409 -179 -465 -414 -29 -123 -33 -171 -42
-570 -18 -745 -2 -1621 31 -1774 3 -12 7 -31 10 -44 19 -90 74 -202 132 -264
40 -44 116 -98 136 -98 6 0 16 -4 21 -9 20 -18 149 -51 229 -58 358 -31 602
51 720 241 49 79 87 214 100 351 26 279 26 1747 0 2035 -32 356 -166 535 -448
596 -94 21 -319 25 -424 8z m378 -59 c278 -54 402 -226 425 -590 17 -285 23
-1096 12 -1595 -10 -401 -13 -439 -48 -570 -39 -145 -110 -235 -234 -296 -96
-47 -194 -66 -345 -66 -284 0 -455 84 -541 268 -76 160 -84 291 -84 1324 0
651 6 973 20 1040 3 14 8 39 10 55 54 308 254 450 620 440 72 -2 146 -7 165
-10z"/>
<path d="M16251 7264 c-89 -19 -183 -65 -233 -116 -38 -38 -95 -136 -103 -178
-2 -8 -8 -33 -13 -55 -22 -82 -29 -176 -38 -515 -14 -547 -3 -1479 20 -1675
22 -189 93 -321 211 -389 68 -41 185 -68 299 -70 272 -6 438 77 515 257 23 53
49 172 56 247 23 283 23 1760 0 1991 -13 127 -20 165 -47 237 -70 190 -229
279 -498 280 -58 0 -134 -6 -169 -14z m339 -63 c193 -51 284 -186 304 -451 23
-309 24 -1629 1 -1957 -23 -317 -154 -456 -444 -467 -213 -8 -369 61 -436 194
-27 54 -52 137 -60 200 -28 229 -34 1457 -10 1955 10 208 29 284 93 383 70
107 197 160 382 160 67 0 128 -6 170 -17z"/>
<path d="M16280 7145 c-153 -41 -224 -133 -254 -330 -36 -229 -36 -1921 0
-2099 2 -12 6 -33 9 -48 8 -44 43 -126 67 -158 90 -122 346 -166 523 -90 97
42 174 161 190 295 4 33 9 74 11 90 21 175 21 1715 -1 1948 -21 234 -99 348
-267 393 -60 15 -219 15 -278 -1z m302 -74 c53 -25 67 -37 100 -81 44 -59 66
-141 73 -275 22 -394 22 -1538 0 -1876 -18 -284 -100 -387 -315 -395 -110 -3
-189 20 -246 74 -112 104 -119 173 -119 1252 0 929 6 1047 59 1173 20 49 71
103 120 126 86 42 241 43 328 2z"/>
<path d="M1957 7357 c-13 -11 -15 -199 -13 -1592 l1 -1580 29 -3 c16 -2 32 1
35 6 3 6 6 720 6 1587 l0 1578 -22 8 c-13 5 -27 3 -36 -4z"/>
<path d="M2109 7362 l-25 -3 0 -1587 1 -1587 33 -3 c17 -2 32 0 33 5 1 4 2
718 3 1586 1 1043 -2 1581 -9 1586 -5 3 -21 5 -36 3z"/>
<path d="M2239 7360 c-13 -8 -15 -202 -14 -1592 l0 -1583 35 -3 35 -3 0 1587
0 1587 -21 7 c-11 5 -27 4 -35 0z"/>
<path d="M9487 7356 c-9 -10 -12 -317 -11 -1312 0 -714 4 -1330 8 -1369 25
-241 112 -391 269 -468 86 -42 160 -58 276 -61 209 -5 375 68 492 218 43 55
67 72 55 40 -10 -25 -38 -166 -40 -194 -1 -22 3 -25 34 -25 33 0 35 2 36 35 1
33 11 132 19 190 13 90 15 140 6 140 -5 0 -26 -27 -45 -59 -77 -126 -213 -229
-349 -264 -75 -20 -256 -20 -338 -1 -156 36 -260 135 -312 299 -17 53 -22 79
-32 165 -4 30 -7 643 -7 1362 l0 1306 -25 5 c-13 2 -30 -1 -36 -7z"/>
<path d="M9630 7363 c-13 -3 -15 -155 -14 -1296 0 -710 4 -1323 8 -1360 27
-242 136 -385 323 -422 138 -27 298 -9 411 46 117 57 237 196 287 332 20 54
42 63 39 15 -7 -95 -16 -324 -17 -403 l0 -90 37 -3 36 -3 0 1589 0 1590 -30 4
c-16 3 -33 2 -37 -1 -5 -3 -8 -580 -8 -1281 0 -1208 -1 -1278 -18 -1334 -69
-223 -219 -366 -418 -400 -146 -25 -313 1 -391 61 -72 56 -129 184 -144 328
-4 33 -7 635 -8 1339 -1 1269 -1 1279 -21 1286 -11 3 -27 5 -35 3z"/>
<path d="M9768 7359 c-11 -6 -13 -222 -12 -1271 1 -694 4 -1295 8 -1335 13
-147 61 -244 146 -298 51 -32 110 -47 203 -50 195 -7 348 78 425 235 61 123
59 77 58 1455 l-1 1260 -35 3 -36 3 0 -1238 c-1 -681 -3 -1260 -4 -1288 -4
-54 -34 -155 -58 -195 -26 -43 -95 -111 -132 -130 -53 -27 -114 -41 -188 -42
-196 -3 -279 74 -308 287 -1 11 -3 601 -3 1311 l-1 1292 -24 4 c-13 3 -30 1
-38 -3z"/>
<path d="M10815 7362 c-3 -3 -5 -720 -5 -1594 l0 -1589 33 3 32 3 2 1586 2
1587 -30 4 c-16 3 -31 2 -34 0z"/>
<path d="M17512 7362 c-12 -2 -21 -6 -18 -10 2 -4 7 -39 10 -78 4 -39 8 -80
10 -90 2 -11 7 -57 11 -104 4 -47 8 -87 10 -90 2 -4 11 -84 20 -195 2 -16 5
-48 8 -70 3 -22 9 -71 12 -110 4 -38 8 -77 10 -85 1 -8 6 -46 9 -85 4 -38 9
-86 11 -105 2 -19 9 -82 15 -140 6 -58 13 -121 15 -140 7 -66 15 -135 20 -180
2 -25 7 -65 10 -90 11 -100 16 -147 20 -190 4 -42 10 -98 20 -180 3 -19 7 -62
10 -95 2 -33 7 -71 9 -85 3 -14 8 -56 11 -95 4 -38 8 -83 10 -100 2 -16 7 -57
10 -90 16 -155 25 -239 30 -275 2 -14 6 -56 10 -95 3 -38 8 -81 10 -95 2 -14
7 -51 10 -82 8 -87 20 -197 24 -220 0 -5 138 -8 306 -8 237 0 305 3 306 13 1
6 3 21 4 32 1 11 5 54 9 95 7 78 13 143 21 220 3 25 7 74 10 110 3 36 7 83 10
105 5 42 12 111 20 205 2 30 7 80 10 110 3 30 7 80 10 110 3 30 7 75 10 100 2
25 7 77 10 115 3 39 8 90 10 115 2 25 7 83 10 130 4 47 8 101 10 120 2 19 6
73 9 120 4 47 9 110 11 140 7 72 13 157 20 250 4 67 7 103 20 245 2 22 6 81
10 130 3 50 8 108 10 130 2 22 7 82 11 134 3 52 8 102 9 110 2 9 4 22 4 29 1
9 13 12 39 10 32 -3 37 -7 38 -28 3 -47 15 -205 19 -245 5 -49 18 -207 30
-367 11 -151 15 -206 20 -258 2 -30 7 -89 10 -130 3 -41 8 -102 10 -135 5 -60
11 -129 20 -247 10 -127 16 -204 20 -238 2 -19 7 -66 10 -105 6 -77 14 -171
20 -225 2 -19 6 -71 10 -115 3 -44 8 -93 10 -110 2 -16 7 -68 10 -115 3 -47 8
-96 10 -110 2 -14 7 -61 10 -105 3 -44 8 -98 10 -120 7 -63 17 -178 19 -200 1
-19 9 -20 307 -23 l307 -2 6 42 c4 24 8 68 11 98 6 69 14 147 20 180 2 14 7
57 10 95 3 39 8 84 10 100 2 17 9 75 15 130 6 55 13 116 15 135 3 19 7 64 10
100 3 36 7 76 10 90 2 14 7 51 10 83 3 31 7 83 10 115 3 31 8 68 10 82 2 14 7
54 10 90 3 36 7 76 10 90 2 14 7 54 10 90 4 36 8 76 10 90 2 14 6 57 10 95 3
39 8 81 10 95 2 14 6 56 10 93 3 37 8 76 10 85 1 9 6 55 10 102 4 47 8 87 10
90 2 3 6 43 10 90 3 47 8 92 10 100 2 8 7 44 10 80 3 36 8 81 10 100 2 19 7
60 10 90 3 30 8 71 10 90 2 19 9 82 15 140 6 58 13 119 15 135 3 17 7 64 11
106 6 69 5 76 -12 81 -39 9 -54 -2 -55 -40 0 -20 -2 -44 -4 -52 -1 -8 -5 -46
-9 -85 -4 -38 -9 -86 -11 -105 -2 -19 -7 -60 -10 -90 -3 -30 -8 -71 -10 -90
-10 -81 -17 -148 -21 -190 -2 -25 -8 -88 -14 -140 -6 -52 -13 -115 -16 -140
-9 -85 -16 -145 -19 -170 -3 -25 -10 -84 -21 -197 -3 -32 -7 -74 -9 -93 -3
-19 -7 -62 -10 -95 -3 -33 -8 -71 -10 -85 -2 -14 -7 -54 -10 -90 -3 -36 -8
-81 -10 -100 -2 -19 -9 -80 -15 -135 -10 -97 -18 -168 -25 -230 -5 -46 -15
-135 -20 -185 -3 -25 -7 -63 -9 -85 -3 -22 -8 -71 -11 -110 -4 -38 -8 -77 -10
-85 -2 -8 -7 -49 -10 -90 -4 -41 -8 -86 -10 -100 -2 -14 -6 -54 -10 -90 -4
-36 -8 -76 -10 -90 -2 -14 -6 -55 -10 -92 l-7 -68 -42 -1 c-61 0 -397 0 -429
0 -15 1 -26 4 -25 9 2 6 -7 122 -17 217 -2 22 -7 67 -10 100 -3 33 -8 78 -10
100 -2 22 -7 72 -10 110 -3 39 -8 88 -10 110 -2 22 -7 72 -10 110 -6 70 -11
118 -20 210 -3 28 -7 77 -10 110 -3 33 -8 80 -10 105 -4 42 -7 78 -20 240 -3
36 -7 92 -10 125 -2 33 -7 96 -10 140 -3 44 -7 100 -10 125 -2 25 -6 90 -10
145 -3 55 -8 111 -10 125 -2 14 -6 68 -10 120 -4 52 -8 111 -10 130 -2 19 -6
84 -10 144 -4 60 -8 117 -10 126 -4 21 -18 228 -17 253 0 9 -2 17 -6 18 -26 4
-185 3 -191 -1 -3 -3 -7 -16 -7 -30 -3 -61 -16 -237 -19 -260 -2 -14 -6 -68
-10 -120 -3 -52 -8 -111 -10 -130 -2 -19 -6 -75 -10 -125 -3 -49 -8 -108 -10
-130 -2 -22 -6 -78 -10 -125 -4 -47 -8 -101 -10 -120 -2 -19 -6 -80 -10 -135
-3 -55 -8 -116 -10 -135 -2 -19 -6 -73 -10 -120 -3 -47 -8 -105 -10 -130 -10
-126 -17 -198 -20 -230 -2 -19 -7 -64 -10 -100 -3 -36 -7 -83 -10 -105 -2 -22
-7 -76 -11 -120 -3 -44 -8 -87 -9 -96 -2 -9 -6 -56 -10 -105 -3 -49 -8 -100
-10 -114 -2 -14 -7 -59 -11 -100 -3 -41 -8 -88 -10 -105 -5 -50 -16 -189 -17
-212 -1 -13 -8 -23 -16 -24 -22 -1 -419 -1 -453 0 -30 1 -29 -5 -54 241 -3 36
-8 76 -9 90 -2 14 -6 57 -10 95 -3 39 -8 81 -10 95 -2 14 -6 54 -10 90 -4 36
-8 76 -10 90 -2 14 -7 61 -10 105 -4 44 -9 88 -11 98 -2 10 -6 48 -9 85 -4 37
-8 78 -10 92 -2 14 -6 54 -10 90 -3 36 -8 81 -10 100 -2 19 -6 58 -9 85 -8 76
-26 246 -31 285 -2 19 -7 58 -10 85 -3 28 -7 68 -10 90 -2 22 -7 73 -10 112
-3 40 -8 80 -9 90 -2 10 -7 47 -11 83 -3 36 -8 79 -10 96 -2 17 -7 66 -10 110
-4 43 -8 81 -10 84 -2 3 -6 41 -10 85 -4 44 -8 91 -10 105 -4 27 -16 138 -20
180 -1 14 -5 52 -9 85 -3 33 -8 83 -11 110 -3 28 -7 59 -9 70 -3 11 -5 36 -5
56 -1 39 -14 48 -59 41z"/>
<path d="M17644 7363 c-6 -2 -5 -41 3 -111 6 -59 15 -138 18 -177 4 -38 8 -83
10 -100 5 -38 16 -140 30 -275 14 -135 35 -334 40 -380 2 -19 9 -82 15 -140 6
-58 13 -118 15 -135 2 -16 6 -61 10 -100 4 -38 8 -81 11 -95 2 -14 6 -57 9
-96 3 -40 7 -81 10 -92 2 -12 7 -56 10 -99 4 -43 9 -86 11 -96 1 -9 6 -56 9
-105 4 -48 8 -94 10 -102 2 -8 6 -49 9 -90 4 -41 9 -91 11 -110 2 -19 7 -64
10 -100 5 -61 11 -118 20 -200 3 -19 7 -64 10 -100 3 -36 7 -85 10 -110 2 -25
7 -74 11 -110 4 -36 8 -74 9 -85 1 -11 3 -30 4 -42 1 -23 1 -23 191 -23 l190
0 1 23 c0 12 2 29 4 38 1 10 6 52 9 95 4 44 9 90 11 104 3 22 6 55 20 215 1
17 6 59 9 95 4 36 9 88 12 115 2 28 6 70 9 95 2 25 7 74 10 110 3 36 8 81 10
100 3 31 8 80 20 205 3 22 7 74 10 115 3 41 8 95 10 120 2 25 7 74 10 110 8
104 17 202 20 240 2 19 6 69 9 110 4 41 9 95 11 120 3 25 7 79 10 120 3 41 8
95 10 120 8 81 14 154 20 235 4 44 8 96 10 115 2 19 7 73 11 120 4 47 8 96 9
110 2 14 3 31 4 38 1 10 34 12 148 10 l147 -3 2 -25 c3 -64 15 -208 19 -235 2
-16 7 -70 11 -119 3 -49 7 -98 9 -110 2 -11 6 -61 10 -111 3 -49 8 -106 10
-125 2 -19 6 -71 10 -115 3 -44 8 -98 10 -120 2 -22 7 -74 10 -115 3 -41 8
-91 10 -110 2 -19 6 -76 9 -125 4 -50 8 -100 10 -110 2 -11 7 -65 11 -120 4
-55 9 -116 11 -135 3 -19 7 -58 9 -87 2 -28 6 -75 9 -105 3 -29 8 -80 11 -113
5 -60 12 -133 20 -210 2 -22 7 -76 10 -120 4 -44 8 -89 10 -100 1 -11 6 -61
10 -110 4 -50 8 -101 11 -115 2 -14 7 -63 10 -110 4 -47 8 -92 10 -100 1 -8 3
-18 3 -22 1 -5 87 -8 191 -8 l190 0 1 28 c1 15 3 36 4 47 6 46 16 154 20 205
3 30 7 73 10 95 4 41 20 201 30 310 8 93 15 167 20 205 2 19 7 62 10 95 8 89
16 165 20 205 2 19 7 64 10 100 4 36 8 76 10 90 2 14 7 57 10 95 4 39 8 81 10
95 2 14 7 52 10 85 3 33 8 74 10 90 2 17 6 66 10 110 4 44 9 89 11 100 2 11 7
49 10 85 3 36 7 76 9 90 2 14 7 57 10 95 4 39 8 81 10 95 2 14 6 54 10 90 3
36 8 76 10 90 3 14 7 54 10 90 3 36 7 81 10 100 2 19 7 64 10 100 3 36 8 76
10 90 2 14 7 54 10 90 4 36 8 72 11 81 3 12 -3 18 -25 21 -32 5 -45 0 -48 -17
-1 -9 -6 -58 -19 -195 -2 -30 -7 -69 -9 -85 -2 -17 -9 -82 -15 -145 -5 -63
-12 -126 -15 -140 -2 -14 -7 -56 -10 -95 -3 -38 -8 -90 -11 -115 -4 -25 -7
-58 -9 -75 -5 -54 -16 -159 -20 -195 -2 -19 -7 -64 -10 -100 -3 -36 -7 -81
-10 -100 -3 -19 -7 -62 -10 -95 -3 -33 -9 -96 -15 -140 -5 -44 -12 -107 -15
-140 -3 -33 -7 -78 -10 -100 -2 -22 -6 -69 -10 -105 -3 -36 -8 -81 -10 -100
-2 -19 -7 -62 -10 -95 -10 -108 -25 -258 -30 -305 -3 -19 -7 -69 -10 -110 -4
-41 -8 -91 -10 -110 -6 -53 -14 -139 -30 -300 -10 -107 -15 -143 -20 -148 -3
-3 -59 -5 -126 -5 -137 0 -138 0 -140 76 -1 26 -2 50 -3 55 -1 4 -6 52 -11
107 -12 146 -22 253 -30 335 -2 25 -7 79 -10 120 -3 41 -8 91 -10 110 -2 19
-7 64 -10 100 -3 36 -8 85 -10 110 -2 25 -7 79 -10 120 -4 41 -8 91 -10 110
-2 19 -9 91 -15 160 -14 159 -20 227 -25 265 -2 17 -6 66 -10 110 -3 44 -8 94
-10 110 -2 17 -7 71 -10 120 -4 50 -9 97 -10 106 -2 8 -6 55 -10 105 -4 49 -8
100 -10 114 -2 14 -6 59 -10 100 -6 73 -12 140 -20 210 -2 19 -7 73 -10 120
-4 47 -8 92 -11 100 -3 13 -32 15 -193 15 -104 0 -193 -4 -197 -8 -10 -9 -11
-15 -18 -114 -3 -43 -10 -123 -15 -178 -6 -55 -13 -129 -16 -165 -3 -36 -8
-81 -10 -100 -2 -19 -7 -69 -10 -110 -4 -41 -8 -93 -10 -115 -3 -22 -7 -66
-10 -97 -3 -32 -7 -84 -10 -115 -3 -32 -7 -76 -9 -98 -3 -22 -7 -74 -11 -115
-3 -41 -8 -91 -10 -110 -3 -19 -7 -69 -10 -110 -3 -41 -7 -91 -10 -110 -7 -58
-21 -211 -30 -315 -3 -38 -7 -86 -10 -105 -2 -19 -6 -66 -10 -105 -3 -38 -8
-86 -10 -105 -2 -19 -6 -66 -10 -105 -12 -150 -16 -201 -20 -235 -5 -35 -9
-76 -21 -205 -9 -98 -11 -117 -12 -140 -2 -19 -9 -20 -132 -20 -79 0 -130 4
-131 10 0 6 -2 18 -4 28 -2 9 -6 52 -10 95 -3 42 -8 88 -10 102 -2 14 -6 57
-10 95 -3 39 -10 115 -15 170 -6 55 -12 123 -15 150 -2 28 -7 77 -11 110 -3
33 -7 74 -9 90 -4 49 -15 167 -20 210 -2 22 -7 74 -10 115 -4 41 -8 82 -10 90
-2 8 -7 51 -10 95 -3 44 -8 91 -10 105 -3 14 -7 57 -11 95 -4 39 -8 81 -9 95
-1 14 -6 59 -9 100 -4 41 -9 86 -11 100 -2 14 -6 52 -10 85 -8 87 -25 250 -40
385 -2 25 -7 70 -10 100 -11 119 -15 167 -20 210 -3 25 -7 70 -10 100 -3 30
-8 69 -10 85 -2 17 -7 64 -10 105 -4 41 -9 78 -11 81 -5 8 -46 17 -60 12z"/>
<path d="M17786 7358 c-9 -5 -15 -12 -12 -16 2 -4 7 -43 11 -87 4 -44 8 -91
10 -105 2 -14 7 -61 10 -105 3 -44 8 -91 10 -105 2 -14 6 -56 10 -95 3 -38 8
-86 10 -105 2 -19 6 -64 10 -100 3 -36 7 -85 10 -110 3 -25 8 -70 10 -100 5
-55 11 -125 20 -212 15 -143 19 -188 30 -311 4 -37 8 -76 10 -85 1 -9 6 -55 9
-102 4 -47 9 -96 11 -110 2 -14 7 -63 10 -110 4 -47 8 -101 10 -120 2 -19 6
-73 10 -119 4 -47 8 -92 10 -100 1 -9 6 -59 9 -111 4 -52 9 -108 11 -125 2
-16 7 -70 11 -120 4 -49 8 -103 9 -120 8 -92 18 -202 21 -215 1 -8 3 -27 3
-42 l1 -27 87 2 c72 2 87 5 89 19 1 9 5 54 8 100 4 46 8 99 11 118 2 19 6 71
9 115 4 44 8 98 11 120 2 22 7 69 10 105 3 36 7 92 10 125 3 33 7 83 10 110 3
28 7 82 10 120 3 39 7 90 10 115 3 25 7 74 10 110 3 36 7 86 10 113 8 73 14
137 20 195 5 51 8 86 20 212 4 36 8 81 10 100 2 19 7 64 10 100 8 92 15 159
20 200 2 19 7 73 11 120 3 47 7 92 9 100 2 8 6 51 9 95 4 44 9 91 11 105 2 14
7 59 10 100 4 41 11 116 16 165 5 50 9 96 9 103 0 9 56 12 245 12 135 0 245
-3 246 -7 0 -5 2 -19 4 -33 3 -28 14 -148 20 -225 3 -27 7 -68 9 -90 7 -54 13
-123 31 -320 3 -38 8 -86 10 -105 2 -19 7 -69 10 -110 3 -41 8 -88 10 -105 2
-16 7 -66 10 -110 4 -44 9 -91 10 -105 2 -14 6 -54 9 -90 7 -64 9 -92 21 -220
3 -36 8 -81 10 -100 2 -19 7 -71 10 -115 3 -44 8 -96 10 -115 2 -19 7 -69 10
-110 8 -100 15 -177 20 -220 2 -19 7 -76 10 -127 3 -51 8 -100 9 -110 2 -10 7
-61 11 -113 4 -52 8 -102 10 -110 5 -30 19 -205 16 -217 -2 -16 -4 -16 97 -18
82 -2 82 -2 83 24 1 14 2 37 4 51 1 14 5 63 9 110 4 47 9 101 11 120 2 19 6
76 10 125 4 50 9 97 10 105 2 8 6 53 10 100 3 47 8 96 10 110 2 14 6 66 10
115 3 50 8 104 10 120 3 17 7 64 10 105 3 41 8 89 9 105 2 17 6 62 10 100 7
71 23 233 31 315 3 25 9 95 15 155 6 61 12 126 15 145 2 19 7 69 10 110 4 41
8 88 10 103 2 15 7 60 10 100 4 40 9 83 10 97 1 14 6 61 9 105 4 44 9 91 11
105 4 23 9 76 19 200 6 73 17 183 21 206 3 18 -3 23 -27 26 -38 6 -44 -8 -53
-132 -4 -52 -8 -101 -10 -110 -2 -8 -6 -51 -10 -95 -4 -44 -9 -91 -10 -105 -2
-14 -6 -61 -10 -105 -3 -44 -8 -98 -11 -120 -3 -22 -7 -65 -9 -95 -5 -53 -8
-90 -20 -195 -7 -67 -14 -138 -20 -210 -3 -33 -8 -80 -10 -105 -2 -25 -7 -74
-10 -110 -7 -74 -12 -119 -20 -205 -3 -33 -8 -80 -10 -105 -2 -25 -7 -67 -10
-95 -2 -27 -7 -86 -10 -130 -3 -44 -8 -91 -10 -105 -2 -14 -6 -61 -10 -105
-11 -147 -16 -210 -20 -235 -2 -14 -7 -67 -10 -119 -4 -52 -8 -102 -10 -112
-2 -10 -7 -66 -11 -126 -4 -59 -8 -115 -10 -123 -1 -8 -3 -27 -3 -41 -1 -23
-4 -25 -31 -21 -22 3 -30 10 -31 26 0 11 -2 29 -4 39 -2 9 -6 59 -10 110 -12
153 -13 160 -19 217 -3 30 -8 91 -11 135 -3 44 -8 96 -10 115 -2 19 -7 67 -10
105 -3 39 -8 88 -10 110 -11 111 -22 236 -30 350 -4 44 -8 91 -10 105 -2 14
-7 61 -10 105 -3 44 -8 91 -10 105 -2 14 -6 59 -10 100 -3 41 -8 91 -10 110
-2 19 -7 69 -11 110 -3 41 -7 87 -9 103 -2 15 -6 62 -10 105 -3 42 -8 91 -10
107 -2 17 -7 66 -10 110 -4 44 -8 91 -10 105 -4 28 -12 112 -20 210 -3 36 -8
83 -10 105 -2 22 -7 72 -10 110 -4 39 -9 72 -12 75 -6 7 -582 7 -592 0 -5 -3
-12 -45 -16 -95 -4 -49 -8 -103 -10 -120 -2 -16 -6 -57 -9 -90 -4 -33 -8 -80
-11 -105 -2 -25 -9 -99 -15 -165 -6 -66 -13 -136 -15 -155 -2 -19 -7 -64 -10
-100 -3 -36 -8 -81 -10 -100 -2 -19 -7 -69 -10 -110 -3 -41 -8 -91 -10 -110
-3 -19 -7 -64 -10 -100 -3 -36 -7 -81 -10 -100 -3 -19 -7 -64 -10 -100 -3 -36
-8 -85 -10 -110 -3 -25 -7 -74 -10 -110 -3 -36 -7 -85 -10 -110 -4 -42 -7 -69
-20 -225 -3 -33 -7 -80 -10 -105 -2 -25 -7 -79 -10 -120 -4 -41 -8 -87 -10
-101 -2 -15 -6 -71 -10 -125 -4 -55 -9 -107 -10 -116 -2 -9 -7 -59 -11 -110
-3 -51 -8 -100 -10 -108 -1 -8 -3 -30 -3 -47 -1 -30 -4 -33 -31 -33 -16 0 -30
3 -31 8 0 4 -2 18 -4 32 -1 14 -6 70 -10 125 -3 55 -8 111 -10 125 -2 14 -7
59 -10 100 -3 41 -7 95 -10 120 -10 111 -16 169 -20 225 -7 94 -16 195 -21
250 -2 28 -7 75 -9 105 -5 53 -11 116 -20 210 -2 25 -7 77 -10 115 -3 39 -8
88 -10 110 -6 61 -13 132 -20 210 -4 39 -8 86 -10 105 -3 19 -7 64 -10 100 -3
36 -8 83 -10 105 -2 22 -7 72 -10 110 -3 39 -8 86 -10 105 -2 19 -6 67 -10
105 -3 39 -8 86 -10 105 -3 19 -7 67 -10 105 -4 39 -8 84 -10 100 -2 17 -7 71
-10 120 -4 50 -9 93 -11 96 -7 12 -41 16 -58 7z"/>
<path d="M3399 7276 c-2 -2 -22 -6 -44 -10 -198 -28 -322 -158 -361 -376 -8
-42 -13 -551 -6 -586 3 -19 10 -24 36 -24 l32 0 -1 253 c0 323 9 396 60 498
67 131 211 194 430 188 183 -6 285 -64 347 -197 47 -104 55 -194 54 -623 l-1
-382 -155 -64 c-626 -256 -787 -420 -855 -868 -6 -41 -7 -277 -1 -330 3 -26
18 -132 21 -145 0 -3 7 -23 14 -45 64 -190 194 -291 385 -301 197 -9 349 63
477 226 37 47 109 183 109 206 0 7 5 16 11 20 8 5 10 -36 5 -152 -5 -145 -8
-305 -7 -361 1 -19 7 -23 36 -23 l36 0 -4 1353 c-4 1485 0 1392 -65 1530 -70
149 -200 214 -433 215 -64 1 -118 -1 -120 -2z m545 -1898 l-1 -573 -28 -85
c-49 -142 -147 -269 -259 -335 -118 -69 -306 -84 -418 -33 -137 63 -215 196
-232 398 -7 71 -7 290 -2 330 3 14 7 48 11 75 4 28 16 78 26 112 69 223 202
360 490 504 113 56 388 178 404 178 8 1 10 -180 9 -571z"/>
<path d="M3820 5856 c-14 -8 -90 -46 -168 -85 -280 -138 -422 -254 -500 -406
-19 -38 -53 -144 -68 -210 -15 -64 -13 -388 2 -460 28 -138 97 -240 194 -287
68 -33 213 -31 310 3 85 30 179 119 223 213 62 130 61 122 62 709 2 588 5 556
-55 523z m-16 -548 c0 -351 -4 -499 -13 -543 -29 -136 -104 -240 -210 -293
-48 -23 -68 -27 -146 -27 -80 0 -95 3 -137 28 -65 38 -121 125 -144 224 -3 15
-8 109 -10 208 -3 213 13 312 71 430 35 70 112 162 189 224 76 62 362 230 391
231 7 0 10 -167 9 -482z"/>
<path d="M8030 7269 c-19 -5 -48 -11 -65 -14 -90 -17 -208 -97 -249 -168 -28
-49 -62 -145 -70 -202 -13 -89 -20 -321 -20 -700 0 -707 6 -782 77 -918 48
-93 135 -158 252 -189 25 -7 45 -15 45 -18 0 -3 -33 -16 -72 -27 -142 -42
-253 -140 -278 -245 -26 -107 2 -241 65 -316 38 -45 138 -93 222 -106 16 -3
29 -16 17 -17 -33 -3 -56 -8 -109 -23 -150 -42 -242 -125 -281 -251 -19 -60
-27 -251 -14 -319 15 -72 52 -147 96 -191 40 -39 132 -86 194 -100 19 -4 53
-11 75 -16 149 -32 438 -29 578 7 265 66 354 178 355 447 1 164 -26 253 -100
328 -94 94 -248 139 -539 154 -244 14 -345 41 -423 114 -72 67 -97 177 -66
290 36 134 192 227 400 237 130 6 210 12 240 18 157 32 270 110 320 223 21 48
44 126 55 193 16 98 22 567 15 1180 -2 140 1 215 10 235 6 17 11 30 10 30 -4
0 14 46 33 82 56 111 179 186 327 200 69 6 81 14 73 44 -7 24 -49 25 -146 4
-88 -18 -148 -49 -207 -105 -48 -45 -111 -155 -125 -217 -10 -49 -21 -40 -34
26 -7 33 -28 91 -47 130 -56 111 -138 169 -278 196 -76 15 -279 17 -336 4z
m330 -65 c169 -39 262 -134 299 -304 19 -83 25 -274 25 -725 0 -473 -7 -675
-29 -762 -55 -229 -204 -322 -495 -310 -125 6 -150 9 -213 34 -126 48 -200
150 -232 318 -25 131 -26 1290 -1 1400 2 11 9 42 16 69 36 157 138 253 305
285 67 13 260 10 325 -5z m-105 -2878 c146 -11 280 -38 350 -70 126 -57 176
-156 177 -351 3 -318 -157 -426 -617 -420 -291 4 -457 62 -517 178 -32 63 -46
129 -46 215 0 287 128 428 408 448 47 4 86 7 87 9 3 2 36 0 158 -9z"/>
<path d="M8158 7165 c-2 -2 -30 -6 -62 -10 -110 -12 -200 -58 -248 -124 -24
-34 -56 -124 -65 -181 -14 -103 -23 -851 -13 -1180 9 -286 53 -400 184 -467
57 -29 159 -49 236 -47 259 7 361 85 405 309 17 87 28 946 15 1245 -10 232
-66 358 -181 409 -54 24 -85 31 -169 37 -36 3 -73 6 -82 8 -9 2 -18 3 -20 1z
m232 -103 c97 -47 135 -133 147 -332 8 -111 9 -874 3 -1070 -10 -302 -73 -408
-261 -438 -167 -26 -325 23 -378 119 -55 97 -65 222 -65 809 0 685 13 788 105
878 83 81 317 99 449 34z"/>
<path d="M8027 4284 c-1 -2 -25 -6 -52 -10 -121 -16 -216 -61 -257 -121 -46
-68 -59 -126 -59 -252 0 -282 123 -367 532 -368 149 -1 255 13 349 44 78 26
143 92 166 169 18 62 24 209 12 279 -24 143 -119 218 -303 240 -27 4 -63 9
-80 12 -32 5 -303 12 -308 7z m373 -69 c133 -24 216 -78 240 -157 34 -112 19
-289 -31 -359 -43 -61 -152 -102 -289 -109 -204 -11 -400 9 -480 50 -90 46
-121 123 -116 285 3 83 9 121 24 157 32 74 108 120 222 135 19 3 37 7 40 9 6
7 347 -4 390 -11z"/>
<path d="M11978 7275 c-1 -2 -23 -6 -47 -10 -109 -16 -219 -80 -276 -159 -29
-41 -68 -141 -80 -205 -20 -109 -25 -331 -25 -1136 0 -1048 4 -1127 70 -1270
49 -109 129 -170 266 -205 153 -40 394 -29 506 22 127 58 174 134 224 353 8
35 14 536 7 581 -4 24 -9 30 -26 28 -12 -1 -27 -3 -33 -3 -8 -1 -10 -70 -9
-238 4 -381 -20 -508 -117 -610 -39 -41 -130 -81 -204 -90 -91 -12 -257 -6
-324 11 -218 56 -277 173 -285 561 -6 308 -7 867 -1 872 3 3 230 6 505 6 l499
0 2 156 c3 234 3 580 0 720 -11 405 -96 550 -358 605 -58 12 -284 21 -294 11z
m283 -71 c173 -39 258 -143 284 -349 14 -109 21 -501 15 -871 l-2 -142 -469 0
c-343 0 -469 3 -469 12 -5 156 7 850 15 951 25 289 156 409 451 414 64 1 128
-4 175 -15z"/>
<path d="M11955 7146 c-134 -33 -202 -103 -233 -241 -20 -88 -22 -132 -29
-572 l-6 -431 402 -1 401 0 1 137 c3 441 -3 742 -17 827 -27 162 -88 240 -218
279 -54 17 -236 17 -301 2z m307 -71 c63 -27 119 -101 133 -178 3 -12 7 -35
11 -50 10 -46 14 -204 13 -537 0 -173 -1 -323 0 -332 0 -17 -23 -18 -331 -18
l-330 0 6 403 c3 221 8 418 11 437 12 86 17 108 39 155 29 62 66 99 119 120
89 34 250 34 329 0z"/>
<path d="M3372 7145 c-101 -28 -154 -69 -195 -152 -46 -92 -52 -139 -52 -431
0 -290 1 -294 48 -285 l23 4 -1 252 c0 312 6 356 53 441 16 28 44 61 62 74 74
50 225 69 321 41 24 -8 61 -31 85 -54 40 -38 52 -63 81 -176 3 -13 8 -186 10
-385 l4 -360 -101 -43 c-114 -49 -389 -200 -497 -273 -90 -60 -193 -156 -246
-227 -74 -100 -145 -282 -163 -416 -3 -27 -8 -59 -10 -70 -6 -28 -5 -267 1
-348 28 -367 214 -579 520 -591 206 -8 372 68 491 225 21 27 41 49 44 49 4 0
-4 -51 -16 -112 -13 -62 -23 -116 -24 -120 0 -5 17 -8 39 -8 l38 0 2 69 c1 38
4 78 6 90 2 11 7 60 10 109 4 48 9 90 12 95 2 4 0 7 -5 7 -5 0 -26 -28 -47
-62 -54 -88 -157 -186 -236 -224 -150 -73 -343 -80 -478 -18 -170 77 -260 236
-286 504 -6 63 -7 295 -1 325 2 11 7 45 11 75 17 127 77 287 145 385 37 53
115 131 181 182 107 81 437 255 616 323 l62 24 -1 356 c0 195 -4 384 -9 420
-22 153 -72 240 -165 286 -50 25 -70 28 -168 31 -76 2 -128 -2 -164 -12z"/>
<path d="M13567 6222 c-13 -3 -17 -15 -18 -50 0 -53 0 -1973 1 -1984 0 -5 16
-8 35 -8 l35 0 0 989 0 990 378 0 c207 0 385 0 395 0 12 1 17 9 17 31 0 17 -3
30 -7 31 -33 2 -823 3 -836 1z"/>
</g>
</svg>
